<svg id="Calque_1" data-name="Calque 1" xmlns="http://www.w3.org/2000/svg" viewBox="0 0 530.98 517.84"><defs><style>.cls-1{fill:#aaa;}</style></defs><title>git</title><path class="cls-1" d="M568.61,442.75c-.27,3.37-.57,6.74-.82,10.11-2.54,34.82-11.41,68-27.33,99Q491.38,647.58,390,684.11a19.45,19.45,0,0,1-10.45.91c-6.16-1.2-10-6.11-10-12.76,0-10,.1-19.91.15-29.87.08-14.16.2-28.32.19-42.48,0-12.58-1.62-24.92-7.66-36.17-2.59-4.8-6.12-9.09-9.21-13.6,3.49-.48,7.48-1,11.45-1.61,16.22-2.52,32-6.49,47-13.49,28.13-13.17,46.18-35,54.91-64.58a169.77,169.77,0,0,0,6.15-62.59,98.76,98.76,0,0,0-24.76-57.93,4.24,4.24,0,0,1-1-4.84c5.81-17.43,5.69-35.06,1.26-52.74-1.08-4.27-2.7-8.41-3.88-12.66-.61-2.18-1.94-2.8-4-2.91a58.33,58.33,0,0,0-17.94,2c-15.79,4.14-30,11.72-43.73,20.27-2.25,1.4-4.39,3-6.7,4.28a5.08,5.08,0,0,1-3.4.61,251.38,251.38,0,0,0-81.28-7.83,237.9,237.9,0,0,0-47.87,7.94,4.11,4.11,0,0,1-3.67-.74c-13.62-9-27.73-17.06-43.28-22.32-7.71-2.61-15.57-4.47-23.8-4.24-4,.12-4,.09-5.35,3.77-7.31,20.13-9.36,40.61-3.28,61.38,1.23,4.23,1,6.92-2,10.45a97.85,97.85,0,0,0-23.08,59c-1.26,24.16,1.27,47.87,10.44,70.5,10.93,27,30.57,45.16,57.34,56,16,6.49,32.82,9.87,49.91,12,.72.09,1.43.21,2.16.32-.06.29,0,.48-.12.55-9.47,9.1-13.84,20.64-16,33.26a3,3,0,0,1-1.2,2c-13.28,5.73-27,8.47-41.37,5.17-14.72-3.38-25.33-12.47-33.23-24.94-5.75-9.07-12.38-17.24-21.45-23.19-8.14-5.35-17-7.66-26.71-6.07-2.46.4-5.23.71-6.24,3.46s.9,4.86,2.71,6.53a45.87,45.87,0,0,0,8,6.23c5.86,3.36,10.25,8.15,14.17,13.45a125.91,125.91,0,0,1,15.53,27.42c6,14.85,17.39,23.79,32.46,28.32,12.63,3.79,25.56,4.1,38.57,2.84,5.7-.55,11.38-1.4,17.31-2.14v2.38c.08,15-.08,30.1.32,45.13.33,12.76-10.13,16.86-19.27,13.81a258.49,258.49,0,0,1-88.81-50.81q-61-53.18-82.5-131.31a259.9,259.9,0,0,1-8.4-88.7Q45,326.36,102,259.84a264.8,264.8,0,0,1,169.4-90.39,265.58,265.58,0,0,1,64.86.18c41.68,5.23,80.11,19.32,114.79,43q86.28,58.86,110.79,160.63a242.42,242.42,0,0,1,6.45,47.46c0,.87.25,1.73.37,2.59Z" transform="translate(-37.63 -167.55)"/></svg>