<svg id="Calque_1" data-name="Calque 1" xmlns="http://www.w3.org/2000/svg" viewBox="0 0 408.03 408.03"><defs><style>.cls-1{fill:#aaa;}.cls-2{fill:#fff;}</style></defs><title>linkedin</title><path class="cls-1" d="M502.86,253V590.86a9.22,9.22,0,0,0-.73,1.76,41.46,41.46,0,0,1-14.46,24c-5.81,4.92-12.74,7.29-19.88,9.29H129.9a6.2,6.2,0,0,0-1.37-.67c-20.46-4.35-33.68-20.49-33.68-41.41q0-161.94,0-323.89a45.84,45.84,0,0,1,1.26-11c4.71-18.77,21-31,41.13-31q161.55,0,323.1,0c1.19,0,2.39,0,3.58.06,11.43.7,20.85,5.48,28.56,13.89C498.06,237.89,500.77,245.26,502.86,253Zm-183.63,151v-22.5H258.37V564.37h60.92v-5q0-49.41,0-98.81c0-2.52.09-5,.32-7.55,1.61-17.91,21.36-31,38.49-25.62,14,4.41,22.25,15.93,22.28,31.3q.08,50.39,0,100.79c0,1.56,0,3.13,0,4.81h61c.05-1,.12-1.66.12-2.32,0-37.71.15-75.43-.05-113.14-.13-25.05-11-44.94-31.39-59-18.36-12.68-38.51-16.83-60-8.49A74.56,74.56,0,0,0,319.23,403.94ZM156.38,381.33v183H217v-183Zm66.86-71.73c-.08-20.3-16.77-36.9-36.81-36.61a36.66,36.66,0,0,0,.2,73.32A36.5,36.5,0,0,0,223.24,309.6Z" transform="translate(-94.83 -217.9)"/><path class="cls-2" d="M319.23,403.94a74.56,74.56,0,0,1,30.87-22.62c21.53-8.34,41.68-4.19,60,8.49,20.43,14.1,31.26,34,31.39,59,.2,37.71.05,75.43.05,113.14,0,.66-.07,1.32-.12,2.32h-61c0-1.68,0-3.25,0-4.81q0-50.4,0-100.79c0-15.37-8.32-26.89-22.28-31.3C341,422,321.23,435.12,319.62,453c-.23,2.51-.31,5-.32,7.55q0,49.41,0,98.81v5H258.37V381.44h60.86Z" transform="translate(-94.83 -217.9)"/><path class="cls-2" d="M156.38,381.33H217v183H156.38Z" transform="translate(-94.83 -217.9)"/><path class="cls-2" d="M223.24,309.6a36.66,36.66,0,1,1-73.32,0A36.93,36.93,0,0,1,186.43,273C206.47,272.7,223.16,289.3,223.24,309.6Z" transform="translate(-94.83 -217.9)"/></svg>