<svg id="Calque_1" data-name="Calque 1" xmlns="http://www.w3.org/2000/svg" viewBox="0 0 155.24 155.46"><defs><style>.cls-1{fill:#aaa;}</style></defs><title>outil</title><path class="cls-1" d="M376.6,432.16V408.31l-19.49-2.59-4.59-16,10.09-15.82-17.2-17s-15.36,13.07-17,11.46S314.92,362,314.92,362l-3.21-19.72H286.25l-3.43,20.41-15.14,5L251.86,357l-17,17,10.32,15.82-6.27,15.59-17.58,3.21v24.31l17.43,3,6.8,17.95-10.7,13.69L253,484.9l15.13-10.55,15.13,6.88,4.59,16.51h23.85l3-17.43,15.59-6.19,15.82,10.32,17.28-17.58-11.32-17.05,5.74-13.75ZM299,450.27a29.35,29.35,0,1,1,29.35-29.35A29.35,29.35,0,0,1,299,450.27Z" transform="translate(-221.36 -342.27)"/></svg>