<svg id="Calque_1" data-name="Calque 1" xmlns="http://www.w3.org/2000/svg" viewBox="0 0 439.01 240.56"><defs><style>.cls-1{fill:#aaa;stroke:#fff;stroke-miterlimit:10;}</style></defs><title>picto__groupe</title><ellipse class="cls-1" cx="79" cy="48.81" rx="46.09" ry="45.4"/><path class="cls-1" d="M117.49,468.85s10.5,16.85,40.27,17.31,41.13-17.31,41.13-17.31,17.54,8.94,24.88,20.4c0,0-18.23,11.93-25.68,23.16S188.23,523.53,179.4,548c0,0-27.54-1-29.58-.57s-22.13-.92-50.56,10.09c0,0-7.8,5.16-14.9-.8a14.33,14.33,0,0,1-4.7-14.33l.23-21.79s.57-16.74,14.21-33.82A68.69,68.69,0,0,1,117.49,468.85Z" transform="translate(-78.76 -381.13)"/><circle class="cls-1" cx="79" cy="48.81" r="46.09"/><path class="cls-1" d="M479.05,469.53s-10.5,16.86-40.28,17.32-41.12-17.32-41.12-17.32-17.55,9-24.88,20.41c0,0,18.23,11.92,25.68,23.16s9.86,11.12,18.69,35.54c0,0,28-1.72,29.58-.57s22.12-.92,50.56,10.09c0,0,7.79,5.16,14.9-.81a14.33,14.33,0,0,0,4.7-14.33l-.23-21.78s-.57-16.74-14.21-33.82A68.91,68.91,0,0,0,479.05,469.53Z" transform="translate(-78.76 -381.13)"/><circle class="cls-1" cx="360.01" cy="49.5" r="46.09"/><ellipse class="cls-1" cx="219.68" cy="62.37" rx="61.2" ry="61.87"/><path class="cls-1" d="M242.46,497.66s17.43,21.4,51.82,23.54,56.1-19.26,59.62-23.54c0,0,28.78,9.5,41.27,38.37,13.3,30.73,9.63,30.88,9.63,30.88l.5,39.44s-1.57,14.39-15,14.84c-13.15-1.75-14.83-3.15-14.83-3.15s-14.06-6.72-44.18-10.93c-30.57-4.27-47.23-2.29-47.23-2.29s-33.79,1.53-55.8,9.94-20,5.87-20,5.87-7.34,3.6-14.68-7.4c0,0-3.06-2-2.44-10.4s-2.91-37.6,5.35-56.41S222.28,503.47,242.46,497.66Z" transform="translate(-78.76 -381.13)"/></svg>