<svg id="Calque_1" data-name="Calque 1" xmlns="http://www.w3.org/2000/svg" viewBox="0 0 105.27 141.32"><defs><style>.cls-1{fill:#aaa;}</style></defs><title>picto__role</title><path class="cls-1" d="M298.84,491.58v-.14c13.65,0,27.31,0,41,0,8.63,0,11.49-2.81,11.48-11.29q0-42-.19-83.93c0-7.73-3.15-10.75-11-10.8s-15.66.2-23.48-.13c-2.39-.1-5.55-1.07-6.79-2.78-.86-1.18.49-4.62,1.7-6.51,2.84-4.43,4.47-8.94,3-14.15-1.82-6.4-6.17-10.27-12.65-11.27-6.87-1.05-13,.68-17.08,6.8-4,6-3.16,11.85.41,17.82,1.34,2.23,3.18,6.16,2.26,7.31-1.48,1.87-5,2.72-7.74,2.86-7.47.38-15,.1-22.47.2-7.8.1-11,3.25-11.08,10.91-.06,8.16-.31,16.34.21,24.47.19,2.94,1.68,6.67,3.87,8.3,1.34,1,5.14-1.32,7.85-2.13,3.7-1.12,7.45-3.24,11.11-3.11,6.05.23,9.9,4.85,11.37,11.54,1.3,5.87-1.31,12.68-6.07,15.87s-10.44,2.87-15.85-.86c-2.71-1.88-5.83-5.09-8.78-2.43-2.18,2-3.26,6-3.46,9.17-.46,7.63-.15,15.31-.07,23,.08,8.3,2.87,11.24,11.06,11.29C271.19,491.65,285,491.58,298.84,491.58Z" transform="translate(-246.02 -350.28)"/><path class="cls-1" d="M298.84,491.58c-13.82,0-27.65.07-41.47,0-8.19-.05-11-3-11.06-11.29-.08-7.66-.39-15.34.07-23,.2-3.19,1.28-7.2,3.46-9.17,2.95-2.66,6.07.55,8.78,2.43,5.41,3.73,11.12,4,15.85.86s7.37-10,6.07-15.87c-1.47-6.69-5.32-11.31-11.37-11.54-3.66-.13-7.41,2-11.11,3.11-2.71.81-6.51,3.13-7.85,2.13-2.19-1.63-3.68-5.36-3.87-8.3-.52-8.13-.27-16.31-.21-24.47.06-7.66,3.28-10.81,11.08-10.91,7.49-.1,15,.18,22.47-.2,2.73-.14,6.26-1,7.74-2.86.92-1.15-.92-5.08-2.26-7.31-3.57-6-4.37-11.86-.41-17.82,4.08-6.12,10.21-7.85,17.08-6.8,6.48,1,10.83,4.87,12.65,11.27,1.48,5.21-.15,9.72-3,14.15-1.21,1.89-2.56,5.33-1.7,6.51,1.24,1.71,4.4,2.68,6.79,2.78,7.82.33,15.65.09,23.48.13s11,3.07,11,10.8q.15,42,.19,83.93c0,8.48-2.85,11.27-11.48,11.29-13.66,0-27.32,0-41,0Z" transform="translate(-246.02 -350.28)"/></svg>